# xmcd
#
# Track frame offsets: 
#        150
#        19575
#        37245
#
# Disc length: 702 seconds
#
# Revision: 0
# Processed by: cddbd v1.5.2PL0 Copyright (c) Steve Scherf et al.
# Submitted via: ExactAudioCopy v0.99pb4
#
DISCID=1e02bc03
DTITLE=Dave Graney 'n' the Coral Snakes - You're Just Too Hip, Baby
DYEAR=1995
DGENRE=Rock
TTITLE0=You're Just Too Hip, Baby
TTITLE1=That's The Way It's Gonna Be
TTITLE2=32/20 Blues
EXTD=
EXTT0=
EXTT1=
EXTT2=
PLAYORDER=
